<mxfile host="app.diagrams.net" modified="2021-10-05T13:36:18.096Z" agent="5.0 (Macintosh; Intel Mac OS X 10_15_7) AppleWebKit/605.1.15 (KHTML, like Gecko) Version/15.0 Safari/605.1.15" etag="lwpbSRNHDOHKju0jxLao" version="15.4.2" type="github">
  <diagram id="uRDF8rKFdN7Dbld3jq4J" name="Page-1">
    <mxGraphModel dx="1298" dy="750" grid="1" gridSize="10" guides="1" tooltips="1" connect="1" arrows="1" fold="1" page="1" pageScale="1" pageWidth="827" pageHeight="1169" math="0" shadow="0">
      <root>
        <mxCell id="0" />
        <mxCell id="1" parent="0" />
        <mxCell id="qYHkEIU8jLwDxSdGNAsX-1" value="Platform Repo&lt;br&gt;(CM GIT)" style="rounded=1;whiteSpace=wrap;html=1;" parent="1" vertex="1">
          <mxGeometry x="120" y="240" width="120" height="60" as="geometry" />
        </mxCell>
        <mxCell id="qYHkEIU8jLwDxSdGNAsX-2" value="" style="shape=flexArrow;endArrow=classic;html=1;entryX=0;entryY=0.5;entryDx=0;entryDy=0;" parent="1" target="qYHkEIU8jLwDxSdGNAsX-1" edge="1">
          <mxGeometry width="50" height="50" relative="1" as="geometry">
            <mxPoint x="30" y="270" as="sourcePoint" />
            <mxPoint x="460" y="360" as="targetPoint" />
            <Array as="points">
              <mxPoint x="80" y="270" />
            </Array>
          </mxGeometry>
        </mxCell>
        <mxCell id="qYHkEIU8jLwDxSdGNAsX-3" value="Commits by DPX team" style="text;html=1;strokeColor=none;fillColor=none;align=center;verticalAlign=middle;whiteSpace=wrap;rounded=0;" parent="1" vertex="1">
          <mxGeometry x="30" y="220" width="70" height="40" as="geometry" />
        </mxCell>
        <mxCell id="qYHkEIU8jLwDxSdGNAsX-4" value="e-Com Repo&lt;br&gt;(CM GIT)" style="rounded=1;whiteSpace=wrap;html=1;" parent="1" vertex="1">
          <mxGeometry x="120" y="390" width="120" height="60" as="geometry" />
        </mxCell>
        <mxCell id="qYHkEIU8jLwDxSdGNAsX-5" value="" style="shape=flexArrow;endArrow=classic;html=1;entryX=0;entryY=0.5;entryDx=0;entryDy=0;" parent="1" target="qYHkEIU8jLwDxSdGNAsX-4" edge="1">
          <mxGeometry width="50" height="50" relative="1" as="geometry">
            <mxPoint x="30" y="420" as="sourcePoint" />
            <mxPoint x="460" y="510" as="targetPoint" />
            <Array as="points">
              <mxPoint x="80" y="420" />
            </Array>
          </mxGeometry>
        </mxCell>
        <mxCell id="qYHkEIU8jLwDxSdGNAsX-6" value="Commits by e-Sphere team" style="text;html=1;strokeColor=none;fillColor=none;align=center;verticalAlign=middle;whiteSpace=wrap;rounded=0;" parent="1" vertex="1">
          <mxGeometry x="30" y="370" width="70" height="40" as="geometry" />
        </mxCell>
        <mxCell id="qYHkEIU8jLwDxSdGNAsX-7" value="Non-production pipeline" style="shape=cylinder3;whiteSpace=wrap;html=1;boundedLbl=1;backgroundOutline=1;size=15;rotation=90;" parent="1" vertex="1">
          <mxGeometry x="360" y="220" width="60" height="100" as="geometry" />
        </mxCell>
        <mxCell id="qYHkEIU8jLwDxSdGNAsX-8" value="" style="endArrow=classic;html=1;exitX=1;exitY=0.5;exitDx=0;exitDy=0;entryX=0.5;entryY=1;entryDx=0;entryDy=0;entryPerimeter=0;" parent="1" source="qYHkEIU8jLwDxSdGNAsX-1" target="qYHkEIU8jLwDxSdGNAsX-7" edge="1">
          <mxGeometry width="50" height="50" relative="1" as="geometry">
            <mxPoint x="410" y="410" as="sourcePoint" />
            <mxPoint x="460" y="360" as="targetPoint" />
            <Array as="points" />
          </mxGeometry>
        </mxCell>
        <mxCell id="qYHkEIU8jLwDxSdGNAsX-9" value="Non-production pipeline" style="shape=cylinder3;whiteSpace=wrap;html=1;boundedLbl=1;backgroundOutline=1;size=15;rotation=90;" parent="1" vertex="1">
          <mxGeometry x="360" y="370" width="60" height="100" as="geometry" />
        </mxCell>
        <mxCell id="qYHkEIU8jLwDxSdGNAsX-10" value="" style="endArrow=classic;html=1;exitX=1;exitY=0.5;exitDx=0;exitDy=0;entryX=0.5;entryY=1;entryDx=0;entryDy=0;entryPerimeter=0;" parent="1" target="qYHkEIU8jLwDxSdGNAsX-9" edge="1">
          <mxGeometry width="50" height="50" relative="1" as="geometry">
            <mxPoint x="240" y="420" as="sourcePoint" />
            <mxPoint x="460" y="510" as="targetPoint" />
            <Array as="points" />
          </mxGeometry>
        </mxCell>
        <mxCell id="qYHkEIU8jLwDxSdGNAsX-11" value="Non-production pipeline" style="shape=cylinder3;whiteSpace=wrap;html=1;boundedLbl=1;backgroundOutline=1;size=15;rotation=90;" parent="1" vertex="1">
          <mxGeometry x="360" y="500" width="60" height="100" as="geometry" />
        </mxCell>
        <mxCell id="qYHkEIU8jLwDxSdGNAsX-12" value="" style="endArrow=classic;html=1;exitX=0.5;exitY=1;exitDx=0;exitDy=0;" parent="1" source="qYHkEIU8jLwDxSdGNAsX-4" edge="1">
          <mxGeometry width="50" height="50" relative="1" as="geometry">
            <mxPoint x="180" y="550" as="sourcePoint" />
            <mxPoint x="180" y="520" as="targetPoint" />
            <Array as="points">
              <mxPoint x="180" y="470" />
            </Array>
          </mxGeometry>
        </mxCell>
        <mxCell id="qYHkEIU8jLwDxSdGNAsX-13" value="" style="endArrow=classic;html=1;entryX=0.675;entryY=-0.027;entryDx=0;entryDy=0;entryPerimeter=0;" parent="1" target="qYHkEIU8jLwDxSdGNAsX-17" edge="1">
          <mxGeometry width="50" height="50" relative="1" as="geometry">
            <mxPoint x="280" y="270" as="sourcePoint" />
            <mxPoint x="340" y="540" as="targetPoint" />
            <Array as="points">
              <mxPoint x="280" y="480" />
              <mxPoint x="200" y="480" />
            </Array>
          </mxGeometry>
        </mxCell>
        <mxCell id="qYHkEIU8jLwDxSdGNAsX-14" value="&lt;span style=&quot;color: rgb(44 , 44 , 44) ; font-family: , &amp;#34;source sans pro&amp;#34; , , &amp;#34;blinkmacsystemfont&amp;#34; , &amp;#34;segoe ui&amp;#34; , &amp;#34;roboto&amp;#34; , sans-serif ; font-size: 14px ; font-weight: bold ; background-color: rgb(255 , 255 , 255)&quot;&gt;platform-dev&lt;/span&gt;" style="ellipse;whiteSpace=wrap;html=1;" parent="1" vertex="1">
          <mxGeometry x="600" y="240" width="100" height="60" as="geometry" />
        </mxCell>
        <mxCell id="qYHkEIU8jLwDxSdGNAsX-15" value="&lt;span style=&quot;color: rgb(44 , 44 , 44) ; font-family: , &amp;#34;source sans pro&amp;#34; , , &amp;#34;blinkmacsystemfont&amp;#34; , &amp;#34;segoe ui&amp;#34; , &amp;#34;roboto&amp;#34; , sans-serif ; font-size: 14px ; font-weight: bold ; background-color: rgb(255 , 255 , 255)&quot;&gt;e-com-dev&lt;/span&gt;" style="ellipse;whiteSpace=wrap;html=1;" parent="1" vertex="1">
          <mxGeometry x="600" y="390" width="100" height="60" as="geometry" />
        </mxCell>
        <mxCell id="qYHkEIU8jLwDxSdGNAsX-16" value="&lt;span style=&quot;color: rgb(44 , 44 , 44) ; font-family: , &amp;#34;source sans pro&amp;#34; , , &amp;#34;blinkmacsystemfont&amp;#34; , &amp;#34;segoe ui&amp;#34; , &amp;#34;roboto&amp;#34; , sans-serif ; font-size: 14px ; font-weight: bold ; background-color: rgb(255 , 255 , 255)&quot;&gt;integration-dev&lt;/span&gt;" style="ellipse;whiteSpace=wrap;html=1;" parent="1" vertex="1">
          <mxGeometry x="600" y="517.5" width="100" height="60" as="geometry" />
        </mxCell>
        <mxCell id="qYHkEIU8jLwDxSdGNAsX-17" value="e-Com Repo&lt;br&gt;(CM GIT)" style="rounded=1;whiteSpace=wrap;html=1;" parent="1" vertex="1">
          <mxGeometry x="120" y="522.5" width="120" height="55" as="geometry" />
        </mxCell>
        <mxCell id="qYHkEIU8jLwDxSdGNAsX-18" value="" style="endArrow=classic;html=1;exitX=1;exitY=0.5;exitDx=0;exitDy=0;entryX=0.5;entryY=1;entryDx=0;entryDy=0;entryPerimeter=0;" parent="1" source="qYHkEIU8jLwDxSdGNAsX-17" target="qYHkEIU8jLwDxSdGNAsX-11" edge="1">
          <mxGeometry width="50" height="50" relative="1" as="geometry">
            <mxPoint x="410" y="410" as="sourcePoint" />
            <mxPoint x="460" y="360" as="targetPoint" />
          </mxGeometry>
        </mxCell>
        <mxCell id="qYHkEIU8jLwDxSdGNAsX-19" value="Production pipeline" style="shape=cylinder3;whiteSpace=wrap;html=1;boundedLbl=1;backgroundOutline=1;size=15;rotation=90;" parent="1" vertex="1">
          <mxGeometry x="350" y="620" width="80" height="130" as="geometry" />
        </mxCell>
        <mxCell id="qYHkEIU8jLwDxSdGNAsX-20" value="" style="endArrow=classic;html=1;exitX=0.5;exitY=1;exitDx=0;exitDy=0;" parent="1" source="qYHkEIU8jLwDxSdGNAsX-17" edge="1">
          <mxGeometry width="50" height="50" relative="1" as="geometry">
            <mxPoint x="410" y="600" as="sourcePoint" />
            <mxPoint x="320" y="690" as="targetPoint" />
            <Array as="points">
              <mxPoint x="180" y="690" />
            </Array>
          </mxGeometry>
        </mxCell>
        <mxCell id="qYHkEIU8jLwDxSdGNAsX-21" value="Production" style="ellipse;whiteSpace=wrap;html=1;" parent="1" vertex="1">
          <mxGeometry x="680" y="645" width="120" height="80" as="geometry" />
        </mxCell>
        <mxCell id="qYHkEIU8jLwDxSdGNAsX-22" value="Stage" style="ellipse;whiteSpace=wrap;html=1;" parent="1" vertex="1">
          <mxGeometry x="510" y="645" width="120" height="80" as="geometry" />
        </mxCell>
        <mxCell id="qYHkEIU8jLwDxSdGNAsX-23" value="" style="endArrow=classic;html=1;entryX=0;entryY=0.5;entryDx=0;entryDy=0;" parent="1" target="qYHkEIU8jLwDxSdGNAsX-22" edge="1">
          <mxGeometry width="50" height="50" relative="1" as="geometry">
            <mxPoint x="460" y="685" as="sourcePoint" />
            <mxPoint x="460" y="550" as="targetPoint" />
          </mxGeometry>
        </mxCell>
        <mxCell id="qYHkEIU8jLwDxSdGNAsX-24" value="" style="endArrow=classic;html=1;exitX=1;exitY=0.5;exitDx=0;exitDy=0;" parent="1" source="qYHkEIU8jLwDxSdGNAsX-22" edge="1">
          <mxGeometry width="50" height="50" relative="1" as="geometry">
            <mxPoint x="410" y="600" as="sourcePoint" />
            <mxPoint x="670" y="685" as="targetPoint" />
          </mxGeometry>
        </mxCell>
        <mxCell id="qYHkEIU8jLwDxSdGNAsX-25" value="" style="endArrow=classic;html=1;entryX=0;entryY=0.5;entryDx=0;entryDy=0;" parent="1" source="qYHkEIU8jLwDxSdGNAsX-9" target="qYHkEIU8jLwDxSdGNAsX-15" edge="1">
          <mxGeometry width="50" height="50" relative="1" as="geometry">
            <mxPoint x="410" y="600" as="sourcePoint" />
            <mxPoint x="460" y="550" as="targetPoint" />
          </mxGeometry>
        </mxCell>
        <mxCell id="qYHkEIU8jLwDxSdGNAsX-27" value="" style="endArrow=classic;html=1;exitX=0.5;exitY=0;exitDx=0;exitDy=0;exitPerimeter=0;entryX=0;entryY=0.5;entryDx=0;entryDy=0;" parent="1" source="qYHkEIU8jLwDxSdGNAsX-7" target="qYHkEIU8jLwDxSdGNAsX-14" edge="1">
          <mxGeometry width="50" height="50" relative="1" as="geometry">
            <mxPoint x="410" y="600" as="sourcePoint" />
            <mxPoint x="460" y="550" as="targetPoint" />
          </mxGeometry>
        </mxCell>
        <mxCell id="qYHkEIU8jLwDxSdGNAsX-28" value="" style="endArrow=classic;html=1;entryX=0;entryY=0.5;entryDx=0;entryDy=0;" parent="1" target="qYHkEIU8jLwDxSdGNAsX-16" edge="1">
          <mxGeometry width="50" height="50" relative="1" as="geometry">
            <mxPoint x="440" y="549.5" as="sourcePoint" />
            <mxPoint x="560" y="549.5" as="targetPoint" />
            <Array as="points">
              <mxPoint x="520" y="548" />
            </Array>
          </mxGeometry>
        </mxCell>
        <mxCell id="qYHkEIU8jLwDxSdGNAsX-30" value="Git Submodule" style="text;html=1;strokeColor=none;fillColor=none;align=center;verticalAlign=middle;whiteSpace=wrap;rounded=0;" parent="1" vertex="1">
          <mxGeometry x="260" y="330" width="40" height="20" as="geometry" />
        </mxCell>
        <mxCell id="qYHkEIU8jLwDxSdGNAsX-34" value="Git Submodule" style="text;html=1;strokeColor=none;fillColor=none;align=center;verticalAlign=middle;whiteSpace=wrap;rounded=0;" parent="1" vertex="1">
          <mxGeometry x="160" y="460" width="40" height="20" as="geometry" />
        </mxCell>
        <mxCell id="qYHkEIU8jLwDxSdGNAsX-35" value="Develop" style="text;html=1;strokeColor=none;fillColor=none;align=center;verticalAlign=middle;whiteSpace=wrap;rounded=0;" parent="1" vertex="1">
          <mxGeometry x="260" y="250" width="40" height="20" as="geometry" />
        </mxCell>
        <mxCell id="qYHkEIU8jLwDxSdGNAsX-36" value="Develop" style="text;html=1;strokeColor=none;fillColor=none;align=center;verticalAlign=middle;whiteSpace=wrap;rounded=0;" parent="1" vertex="1">
          <mxGeometry x="260" y="400" width="40" height="20" as="geometry" />
        </mxCell>
        <mxCell id="qYHkEIU8jLwDxSdGNAsX-37" value="Develop" style="text;html=1;strokeColor=none;fillColor=none;align=center;verticalAlign=middle;whiteSpace=wrap;rounded=0;" parent="1" vertex="1">
          <mxGeometry x="260" y="530" width="40" height="20" as="geometry" />
        </mxCell>
        <mxCell id="qYHkEIU8jLwDxSdGNAsX-38" value="Main" style="text;html=1;strokeColor=none;fillColor=none;align=center;verticalAlign=middle;whiteSpace=wrap;rounded=0;" parent="1" vertex="1">
          <mxGeometry x="230" y="670" width="40" height="20" as="geometry" />
        </mxCell>
      </root>
    </mxGraphModel>
  </diagram>
</mxfile>
